<?xml version="1.0" encoding="UTF-8"?>
<svg id="Layer_1" xmlns="http://www.w3.org/2000/svg" version="1.1" viewBox="0 0 111 111.9">
  <!-- Generator: Adobe Illustrator 30.1.0, SVG Export Plug-In . SVG Version: 2.1.1 Build 136)  -->
  <defs>
    <style>
      .st0 {
        fill: none;
      }
    </style>
  </defs>
  <g id="Layer_11" data-name="Layer_1">
    <g>
      <polygon points="97.4 111.5 72.7 87.3 79.1 82 98.2 110.9 97.4 111.5 97.4 111.5"/>
      <g>
        <circle class="st0" cx="51.6" cy="54.4" r="39.4"/>
        <path d="M71.6,89C40.2,106.8,3.1,78.8,11.6,43.7c5.4-22.1,28.9-35.7,50.8-29.3,34.7,10.2,40.3,56.3,9.2,74.6h0ZM71.1,88.1c23.7-13.7,25.5-47.5,3.5-63.6C47.8,5.1,10.8,26.4,14.2,59.3c2.9,27.1,33.2,42.5,56.9,28.8h0Z"/>
      </g>
    </g>
  </g>
  <g id="Layer_2">
    <path d="M0,111.4c8.2-16.3,19.6-38.6,28.1-54.8l4.7-9.1,2.4-4.5c.9-1.6,1.5-3.5,3.3-4.5,1.5.7,2.2,2.1,2.8,3.5l1.6,3.5c1.8,4,4.4,9.9,6.1,14,1,2.4,2,4.7,2.9,7.1h-.9c1-2.4,2.1-4.7,3.1-7.1,2.5-5.5,5.6-12.2,8.2-17.6.6-1.1,1-2.7,2.2-3.2l.5-.3c1.4.9,1.9,2.3,2.5,3.7l1.6,3.6c2.9,6.8,6.4,15.1,9,22h-.9c1.2-2.9,2.6-5.7,4-8.5C88.6,43.8,102.4,15.5,110.1,0l.9.4c-7.7,15.7-21.2,43.8-28.8,59.2-1.5,3.1-2.9,6.2-4.8,9.2-2.2-4.4-5.1-10.6-7.2-15.2l-3.2-7.2-1.6-3.6c-.5-1.2-1.2-2.3-1-3.9h.9c.2.8,0,1.5-.3,2-3,6-6.4,13.1-9.5,19.1-1.4,2.6-2.7,5.1-4.1,7.7-1.4-2.5-2.7-5-4-7.6-2-4-4.9-9.7-6.7-13.7l-1.6-3.5c-.5-1.2-1.2-2.3-1-3.8h.9c0,2-1.1,3.3-1.8,4.9-7.9,14.9-18.5,34.9-26.5,49.8L.9,111.9,0,111.4h0Z"/>
  </g>
</svg>